<svg width="200" height="37" viewBox="0 0 200 37" fill="none" xmlns="http://www.w3.org/2000/svg">
<path d="M0 0H4.78797V15.4568H24.5644V0H29.3003V36.6905H24.5644V19.6203H4.78797V36.6905H0V0Z" fill="white"/>
<path d="M52.1449 0H59.6391L71.7651 30.081H72.2335L84.4116 0H91.8538V36.6905H87.1179V5.98497H86.6495L74.2632 36.6905H69.7355L57.4012 6.03701H56.9328V36.6905H52.1449V0Z" fill="white"/>
<path d="M114.811 0H121.629L139.011 30.4453H139.48V0H144.216V36.6905H137.45L120.068 6.24519H119.547V36.6905H114.811V0Z" fill="white"/>
<path d="M167.109 0H178.87C183.069 0 186.764 0.763301 189.956 2.2899C193.148 3.78181 195.611 5.91558 197.346 8.69122C199.115 11.4669 200 14.6762 200 18.3192C200 21.9622 199.115 25.1716 197.346 27.9472C195.611 30.7228 193.148 32.874 189.956 34.4006C186.764 35.9272 183.069 36.6905 178.87 36.6905H167.109V0ZM178.87 32.527C182.132 32.527 184.994 31.9545 187.458 30.8096C189.956 29.6646 191.881 28.0166 193.234 25.8655C194.622 23.7144 195.316 21.1989 195.316 18.3192C195.316 15.4395 194.622 12.9414 193.234 10.825C191.881 8.67387 189.956 7.02583 187.458 5.88088C184.994 4.73593 182.132 4.16346 178.87 4.16346H171.845V32.527H178.87Z" fill="white"/>
</svg>
